<svg width="191" height="236" viewBox="0 0 191 236" fill="none" xmlns="http://www.w3.org/2000/svg">
<g opacity="0.5">
<g clip-path="url(#clip0_58735_2373)">
<path fill-rule="evenodd" clip-rule="evenodd" d="M83.4262 27.9167C83.4262 24.0622 80.3015 20.9375 76.447 20.9375C72.5925 20.9375 69.4678 24.0622 69.4678 27.9167V58.1627C69.4678 69.0533 82.3793 74.7851 90.4567 67.4802L120.91 39.9401C128.347 33.2144 139.653 33.2144 147.09 39.9401L226.653 111.892C230.758 115.605 233.104 120.889 233.104 126.436V213.516C233.104 224.346 224.344 233.104 213.562 233.104H178.201H54.4375C43.6564 233.104 34.8958 224.346 34.8958 213.516V126.436C34.8958 120.889 37.2417 115.605 41.3471 111.892L41.3571 111.883L58.6177 96.2128C61.4717 93.6219 61.6849 89.208 59.094 86.3543C56.5031 83.5004 52.0892 83.2874 49.2355 85.8781L31.9847 101.54L31.9788 101.545C24.9476 107.906 20.9375 116.951 20.9375 126.436V213.516C20.9375 232.032 35.9246 247.062 54.4375 247.062H178.201H213.562C232.075 247.062 247.062 232.032 247.062 213.516V126.436C247.062 116.948 243.05 107.902 236.015 101.54L156.453 29.5875C143.7 18.0542 124.3 18.0542 111.547 29.5875L83.4262 55.0184V27.9167ZM99.4649 121.852C99.4649 118.539 102.15 115.854 105.462 115.854C108.774 115.854 111.459 118.539 111.459 121.852C111.459 125.164 108.774 127.849 105.462 127.849C102.15 127.849 99.4649 125.164 99.4649 121.852ZM105.462 101.896C94.4407 101.896 85.5065 110.83 85.5065 121.852C85.5065 132.873 94.4407 141.807 105.462 141.807C116.483 141.807 125.418 132.873 125.418 121.852C125.418 110.83 116.483 101.896 105.462 101.896ZM162.559 170.355C159.246 170.355 156.561 173.04 156.561 176.352C156.561 179.664 159.246 182.349 162.559 182.349C165.871 182.349 168.556 179.664 168.556 176.352C168.556 173.04 165.871 170.355 162.559 170.355ZM142.603 176.352C142.603 165.331 151.538 156.396 162.559 156.396C173.58 156.396 182.514 165.331 182.514 176.352C182.514 187.373 173.58 196.307 162.559 196.307C151.538 196.307 142.603 187.373 142.603 176.352ZM160.398 112.827C162.153 109.395 160.793 105.191 157.361 103.436C153.929 101.681 149.725 103.04 147.97 106.472L107.622 185.376C105.868 188.808 107.227 193.013 110.659 194.768C114.091 196.523 118.295 195.163 120.05 191.731L160.398 112.827Z" fill="url(#paint0_linear_58735_2373)"/>
</g>
</g>
<defs>
<linearGradient id="paint0_linear_58735_2373" x1="134" y1="20.9375" x2="134" y2="247.062" gradientUnits="userSpaceOnUse">
<stop stop-color="#10C944"/>
<stop offset="0.717" stop-color="#9EE42C"/>
</linearGradient>
<clipPath id="clip0_58735_2373">
<path d="M0 0H191V220C191 228.837 183.837 236 175 236H0V0Z" fill="white"/>
</clipPath>
</defs>
</svg>
