<svg width="22" height="21" viewBox="0 0 22 21" fill="none" xmlns="http://www.w3.org/2000/svg">
<path d="M9.81214 0.459372C10.2057 -0.153391 11.1013 -0.153391 11.4949 0.459372L14.5339 5.19083C14.6694 5.40166 14.879 5.55397 15.1214 5.61761L20.5604 7.0458C21.2648 7.23076 21.5415 8.08255 21.0804 8.64622L17.5196 12.9986C17.3609 13.1926 17.2809 13.439 17.2952 13.6892L17.6177 19.3033C17.6594 20.0304 16.9349 20.5568 16.2563 20.2924L11.0166 18.2509C10.7831 18.1599 10.524 18.1599 10.2905 18.2509L5.05078 20.2924C4.37219 20.5568 3.64762 20.0304 3.68938 19.3033L4.01183 13.6892C4.0262 13.439 3.94613 13.1926 3.78746 12.9986L0.226688 8.64622C-0.234461 8.08255 0.0423014 7.23076 0.746696 7.0458L6.18569 5.61761C6.42805 5.55397 6.63769 5.40166 6.77311 5.19083L9.81214 0.459372Z" fill="#FFE600"/>
</svg>
